<svg width="26" height="26" viewBox="0 0 26 26" fill="none" xmlns="http://www.w3.org/2000/svg">
<path d="M19.2887 13.1462C19.213 13.071 19.1231 13.0114 19.0244 12.9709C18.9256 12.9304 18.8198 12.9098 18.713 12.9102C18.6063 12.9105 18.5007 12.9319 18.4022 12.9731C18.3037 13.0143 18.2143 13.0745 18.139 13.1503C18.0638 13.2261 18.0043 13.3159 17.9638 13.4147C17.9232 13.5134 17.9026 13.6192 17.903 13.726C17.9033 13.8327 17.9247 13.9384 17.966 14.0369C18.0072 14.1354 18.0674 14.2248 18.1431 14.3C18.8306 14.9802 19.3764 15.7901 19.7487 16.6827C20.1211 17.5752 20.3127 18.5328 20.3125 19.5C20.3125 20.4912 17.4606 21.9375 13 21.9375C8.53936 21.9375 5.68749 20.4912 5.68749 19.5C5.6862 18.5392 5.87426 17.5876 6.24091 16.6995C6.60757 15.8115 7.14564 15.0044 7.82436 14.3244C7.97569 14.1721 8.06063 13.9662 8.06063 13.7515C8.06063 13.5369 7.97569 13.331 7.82436 13.1787C7.67213 13.0274 7.4662 12.9425 7.25155 12.9425C7.0369 12.9425 6.83097 13.0274 6.67874 13.1787C5.84601 14.0068 5.18596 14.992 4.73686 16.0771C4.28775 17.1622 4.05853 18.3256 4.06249 19.5C4.06249 22.1406 8.66936 23.5625 13 23.5625C17.3306 23.5625 21.9375 22.1406 21.9375 19.5C21.9406 18.318 21.708 17.1473 21.2531 16.0563C20.7983 14.9653 20.1305 13.976 19.2887 13.1462Z" fill="white"/>
<path d="M13 13.8125C14.1249 13.8125 15.2245 13.4789 16.1598 12.854C17.0951 12.229 17.8241 11.3408 18.2546 10.3015C18.685 9.26226 18.7977 8.11869 18.5782 7.01543C18.3588 5.91216 17.8171 4.89874 17.0217 4.10333C16.2263 3.30792 15.2128 2.76624 14.1096 2.54679C13.0063 2.32733 11.8627 2.43996 10.8235 2.87044C9.78423 3.30091 8.89597 4.02989 8.27102 4.9652C7.64607 5.9005 7.3125 7.00012 7.3125 8.125C7.3125 9.63342 7.91172 11.0801 8.97833 12.1467C10.0449 13.2133 11.4916 13.8125 13 13.8125ZM13 4.0625C13.8035 4.0625 14.5889 4.30076 15.257 4.74716C15.9251 5.19355 16.4458 5.82803 16.7533 6.57035C17.0607 7.31268 17.1412 8.12951 16.9844 8.91756C16.8277 9.70561 16.4408 10.4295 15.8726 10.9976C15.3045 11.5658 14.5806 11.9527 13.7926 12.1094C13.0045 12.2662 12.1877 12.1857 11.4453 11.8783C10.703 11.5708 10.0685 11.0501 9.62216 10.382C9.17576 9.71393 8.9375 8.92849 8.9375 8.125C8.9375 7.04756 9.36551 6.01425 10.1274 5.25238C10.8892 4.49051 11.9226 4.0625 13 4.0625Z" fill="white"/>
</svg>
