<svg width="26" height="26" viewBox="0 0 26 26" fill="none" xmlns="http://www.w3.org/2000/svg">
<path d="M21.2658 3.95418C21.14 3.85237 20.9929 3.78005 20.8354 3.74256C20.6779 3.70507 20.5141 3.70334 20.3558 3.73751C19.1982 3.98011 18.0032 3.98321 16.8444 3.74659C15.6855 3.50998 14.5873 3.03867 13.6175 2.36168C13.4362 2.23587 13.2207 2.16846 13 2.16846C12.7793 2.16846 12.5638 2.23587 12.3825 2.36168C11.4127 3.03867 10.3145 3.50998 9.15565 3.74659C7.9968 3.98321 6.80178 3.98011 5.64417 3.73751C5.48593 3.70334 5.32206 3.70507 5.16458 3.74256C5.0071 3.78005 4.86002 3.85237 4.73417 3.95418C4.60848 4.05614 4.50723 4.18496 4.43787 4.33119C4.3685 4.47742 4.33278 4.63733 4.33333 4.79918V12.87C4.33237 14.4232 4.70251 15.9542 5.41291 17.3355C6.12332 18.7167 7.15345 19.9082 8.4175 20.8108L12.3717 23.6275C12.5551 23.7581 12.7748 23.8283 13 23.8283C13.2252 23.8283 13.4449 23.7581 13.6283 23.6275L17.5825 20.8108C18.8466 19.9082 19.8767 18.7167 20.5871 17.3355C21.2975 15.9542 21.6676 14.4232 21.6667 12.87V4.79918C21.6672 4.63733 21.6315 4.47742 21.5621 4.33119C21.4928 4.18496 21.3915 4.05614 21.2658 3.95418ZM19.5 12.87C19.5008 14.0777 19.2132 15.2681 18.6611 16.3421C18.109 17.4162 17.3084 18.3428 16.3258 19.045L13 21.4175L9.67417 19.045C8.69162 18.3428 7.89098 17.4162 7.33888 16.3421C6.78677 15.2681 6.49917 14.0777 6.5 12.87V6.04501C8.77113 6.23939 11.0457 5.71245 13 4.53918C14.9543 5.71245 17.2289 6.23939 19.5 6.04501V12.87Z" fill="#8F8F8F"/>
</svg>
