<svg width="26" height="26" viewBox="0 0 26 26" fill="none" xmlns="http://www.w3.org/2000/svg">
<path d="M10.1942 8.66667H18.4167C18.704 8.66667 18.9795 8.55253 19.1827 8.34937C19.3859 8.1462 19.5 7.87065 19.5 7.58333C19.5 7.29602 19.3859 7.02047 19.1827 6.8173C18.9795 6.61414 18.704 6.5 18.4167 6.5H7.58333C7.44177 6.50171 7.30191 6.53116 7.17167 6.58667C6.90695 6.6966 6.6966 6.90695 6.58667 7.17167C6.53116 7.30191 6.50171 7.44177 6.5 7.58333V18.4167C6.5 18.704 6.61414 18.9795 6.8173 19.1827C7.02047 19.3859 7.29602 19.5 7.58333 19.5C7.87065 19.5 8.1462 19.3859 8.34937 19.1827C8.55253 18.9795 8.66667 18.704 8.66667 18.4167V10.1942L17.6475 19.1858C17.7482 19.2874 17.868 19.368 18 19.423C18.1321 19.478 18.2737 19.5063 18.4167 19.5063C18.5597 19.5063 18.7013 19.478 18.8333 19.423C18.9653 19.368 19.0851 19.2874 19.1858 19.1858C19.2874 19.0851 19.368 18.9653 19.423 18.8333C19.478 18.7013 19.5063 18.5597 19.5063 18.4167C19.5063 18.2737 19.478 18.1321 19.423 18C19.368 17.868 19.2874 17.7482 19.1858 17.6475L10.1942 8.66667Z" fill="#8F8F8F"/>
</svg>
