<svg width="19" height="19" viewBox="0 0 19 19" fill="none" xmlns="http://www.w3.org/2000/svg">
<path d="M13.2263 5.86148C13.0767 5.71265 12.8716 5.63744 12.6666 5.63744C12.4616 5.63744 12.2565 5.71265 12.1069 5.86148L10.2916 7.67677V2.37498C10.2916 1.93798 9.93693 1.58331 9.49993 1.58331C9.06293 1.58331 8.70826 1.93798 8.70826 2.37498V7.67677L6.89297 5.86148C6.74335 5.71265 6.54464 5.62952 6.33326 5.62952C6.12189 5.62952 5.92318 5.71265 5.77355 5.86148C5.4648 6.17023 5.4648 6.67215 5.77355 6.9809L9.49993 10.6875L13.2279 6.97931C13.5351 6.67294 13.5351 6.17023 13.2263 5.86148Z" fill="white"/>
<path d="M16.6147 12.6667C16.6147 12.5835 16.6115 12.4996 16.5838 12.4165L15.0005 7.6665C14.8928 7.34271 14.5912 7.125 14.25 7.125H14.0766C14.0022 7.27383 13.9104 7.41633 13.7861 7.54062L12.6128 8.70833H13.68L14.9997 12.6667H4.00108L5.32079 8.70833H6.38796L5.21392 7.54062C5.08963 7.41633 4.997 7.27383 4.92337 7.125H4.75C4.40879 7.125 4.10717 7.34271 3.9995 7.6665L2.41617 12.4165C2.38846 12.4996 2.38529 12.5835 2.38529 12.6667C2.375 12.6667 2.375 16.625 2.375 16.625C2.375 17.0628 2.72888 17.4167 3.16667 17.4167H15.8333C16.2711 17.4167 16.625 17.0628 16.625 16.625C16.625 16.625 16.625 12.6667 16.6147 12.6667Z" fill="white"/>
</svg>
