<svg width="30" height="18" viewBox="0 0 30 18" fill="none" xmlns="http://www.w3.org/2000/svg">
<path d="M30 0H0V18H30V0Z" fill="#13A8E0"/>
<path d="M4.36511 6.8311L3.86539 5.57194L3.36851 6.8311H4.36511ZM15.3741 6.3297C15.2737 6.39268 15.1551 6.39477 15.0129 6.39477H14.1259V5.69321H15.025C15.1522 5.69321 15.285 5.69912 15.3712 5.75018C15.4659 5.7962 15.5245 5.89414 15.5245 6.02942C15.5245 6.16746 15.4688 6.27854 15.3741 6.3297ZM21.7016 6.8311L21.1963 5.57194L20.6938 6.8311H21.7016ZM9.90672 8.19402H9.15823L9.15547 5.72027L8.09677 8.19402H7.45571L6.39425 5.71808V8.19402H4.90925L4.62871 7.48951H3.10852L2.82511 8.19402H2.03213L3.33958 5.03548H4.42436L5.66612 8.02597V5.03548H6.85777L7.81328 7.17817L8.69103 5.03548H9.90663V8.19402H9.90672ZM12.8899 8.19402H10.4509V5.03548H12.8899V5.69321H11.181V6.26254H12.8489V6.90999H11.181V7.54076H12.8899V8.19402ZM16.3288 5.88613C16.3288 6.38972 16.0038 6.6499 15.8144 6.72802C15.9741 6.7909 16.1106 6.90198 16.1755 6.99401C16.2786 7.15111 16.2964 7.29144 16.2964 7.57353V8.19402H15.56L15.5572 7.7957C15.5572 7.60564 15.5748 7.33231 15.442 7.18036C15.3353 7.06928 15.1727 7.04517 14.9098 7.04517H14.126V8.19402H13.396V5.03548H15.0753C15.4484 5.03548 15.7233 5.04567 15.9594 5.18676C16.1904 5.32786 16.3288 5.53383 16.3288 5.88613ZM17.4973 8.19402H16.7523V5.03548H17.4973V8.19402ZM26.1401 8.19402H25.1054L23.7215 5.82335V8.19402H22.2345L21.9504 7.48951H20.4337L20.1581 8.19402H19.3037C18.9488 8.19402 18.4995 8.11285 18.245 7.84467C17.9884 7.57649 17.8549 7.21323 17.8549 6.63885C17.8549 6.17041 17.9347 5.74218 18.2485 5.40379C18.4846 5.15171 18.8542 5.03548 19.3573 5.03548H20.0642V5.71227H19.3722C19.1057 5.71227 18.9553 5.75323 18.8103 5.89937C18.6859 6.03237 18.6005 6.28378 18.6005 6.61484C18.6005 6.95324 18.6655 7.19722 18.8012 7.35661C18.9136 7.4816 19.1179 7.51952 19.3101 7.51952H19.638L20.667 5.03557H21.761L22.9971 8.02311V5.03557H24.1088L25.3922 7.23533V5.03557H26.1401V8.19402ZM2.02356 8.81441H3.27113L3.55241 8.11285H4.18214L4.46268 8.81441H6.91719V8.27805L7.13629 8.8167H8.41048L8.62957 8.27004V8.81441H14.7295L14.7266 7.6628H14.8447C14.9273 7.66575 14.9514 7.67366 14.9514 7.81475V8.81441H18.1064V8.54632C18.3608 8.68732 18.7566 8.81441 19.2775 8.81441H20.6047L20.8888 8.11285H21.5185L21.7963 8.81441H24.354V8.14801L24.7413 8.81441H26.7909V4.40918H24.7625V4.92944L24.4784 4.40918H22.3971V4.92944L22.1362 4.40918H19.3248C18.8542 4.40918 18.4405 4.47711 18.1064 4.66641V4.40918H16.1662V4.66641C15.9536 4.47129 15.6638 4.40918 15.3416 4.40918H8.25358L7.77799 5.54698L7.28959 4.40918H5.05703V4.92944L4.81177 4.40918H2.90776L2.02356 6.50367V8.81441Z" fill="white"/>
<path d="M28 11.1443H26.6693C26.5365 11.1443 26.4482 11.1495 26.3738 11.2014C26.2968 11.2525 26.2671 11.3285 26.2671 11.4287C26.2671 11.5479 26.3322 11.6289 26.4268 11.664C26.5038 11.6917 26.5866 11.6998 26.7082 11.6998L27.1039 11.7108C27.5032 11.721 27.7697 11.7919 27.9323 11.965C27.9618 11.9892 27.9796 12.0162 28 12.0433V11.1443ZM28 13.2272C27.8226 13.4954 27.477 13.6313 27.0092 13.6313H25.5992V12.9538H27.0035C27.1428 12.9538 27.2403 12.9349 27.2989 12.8756C27.3498 12.8268 27.3853 12.7558 27.3853 12.6696C27.3853 12.5775 27.3498 12.5045 27.2961 12.4606C27.2431 12.4124 27.166 12.3905 27.0389 12.3905C26.3533 12.3664 25.498 12.4124 25.498 11.4127C25.498 10.9544 25.7794 10.4721 26.5456 10.4721H28V9.84351H26.6487C26.2409 9.84351 25.9447 9.94449 25.7349 10.1015V9.84351H23.7363C23.4166 9.84351 23.0415 9.92544 22.864 10.1015V9.84351H19.295V10.1015C19.011 9.88962 18.5317 9.84351 18.3105 9.84351H15.9563V10.1015C15.7316 9.87647 15.2318 9.84351 14.9273 9.84351H12.2925L11.6896 10.5182L11.1249 9.84351H7.18921V14.2518H11.0509L11.6721 13.5664L12.2573 14.2518L14.6377 14.254V13.217H14.8717C15.1875 13.222 15.56 13.2089 15.8887 13.062V14.2517H17.852V13.1027H17.9467C18.0676 13.1027 18.0795 13.1079 18.0795 13.2328V14.2516H24.0438C24.4225 14.2516 24.8183 14.1514 25.0374 13.9695V14.2516H26.9293C27.323 14.2516 27.7075 14.1945 28 14.0484V13.2272ZM25.0876 11.965C25.2297 12.1172 25.3059 12.3093 25.3059 12.6344C25.3059 13.3141 24.8953 13.6313 24.159 13.6313H22.7369V12.9538H24.1533C24.2917 12.9538 24.3899 12.9349 24.4515 12.8756C24.5017 12.8268 24.5377 12.7558 24.5377 12.6696C24.5377 12.5775 24.4988 12.5045 24.4486 12.4606C24.3928 12.4124 24.3158 12.3905 24.1886 12.3905C23.5058 12.3664 22.6508 12.4124 22.6508 11.4127C22.6508 10.9544 22.9292 10.4721 23.6946 10.4721H25.1583V11.1445H23.819C23.6862 11.1445 23.5999 11.1496 23.5265 11.2016C23.4465 11.2527 23.4168 11.3287 23.4168 11.4289C23.4168 11.5481 23.4847 11.6291 23.5766 11.6642C23.6536 11.6919 23.7364 11.7 23.8607 11.7L24.2538 11.711C24.6501 11.721 24.9222 11.7918 25.0876 11.965ZM18.4993 11.7699C18.4017 11.8299 18.2809 11.835 18.1388 11.835H17.2519V11.1254H18.1509C18.2809 11.1254 18.411 11.1283 18.4993 11.1825C18.594 11.2337 18.6505 11.3315 18.6505 11.4667C18.6505 11.6019 18.594 11.7108 18.4993 11.7699ZM18.9403 12.1631C19.1028 12.2251 19.2357 12.3363 19.2979 12.4283C19.401 12.5826 19.416 12.7265 19.4189 13.005V13.6313H18.6859V13.236C18.6859 13.046 18.7036 12.7645 18.5679 12.6176C18.4612 12.5045 18.2986 12.4774 18.0322 12.4774H17.252V13.6313H16.5183V10.472H18.204C18.5736 10.472 18.8428 10.4889 19.0824 10.6211C19.3129 10.765 19.4578 10.9622 19.4578 11.3227C19.4577 11.8269 19.1325 12.0842 18.9403 12.1631ZM19.8626 10.472H22.2994V11.1253H20.5897V11.6997H22.2577V12.3443H20.5897V12.9729L22.2994 12.9758V13.6313H19.8626V10.472ZM14.9366 11.93H13.993V11.1254H14.945C15.2086 11.1254 15.3916 11.2365 15.3916 11.5128C15.3916 11.786 15.2171 11.93 14.9366 11.93ZM13.2658 13.344L12.1448 12.0571L13.2658 10.8111V13.344ZM10.3709 12.9729H8.57581V12.3443H10.1787V11.6997H8.57581V11.1253H10.4063L11.2049 12.046L10.3709 12.9729ZM16.1755 11.5128C16.1755 12.3904 15.5422 12.5716 14.904 12.5716H13.993V13.6313H12.5739L11.6749 12.5854L10.7406 13.6313H7.84851V10.472H10.7851L11.6834 11.5076L12.6121 10.472H14.945C15.5245 10.472 16.1755 10.6379 16.1755 11.5128Z" fill="white"/>
</svg>
