<svg width="30" height="18" viewBox="0 0 30 18" fill="none" xmlns="http://www.w3.org/2000/svg">
<path d="M30 0H0V18H30V0Z" fill="#0A469C"/>
<path d="M19.6946 10.385H20.9485C20.9843 10.385 21.0679 10.373 21.1037 10.373C21.3426 10.325 21.5456 10.1088 21.5456 9.8086C21.5456 9.52039 21.3426 9.30423 21.1037 9.24419C21.0679 9.23218 20.9962 9.23218 20.9485 9.23218H19.6946V10.385Z" fill="white"/>
<path d="M20.8051 2.4231C19.6109 2.4231 18.6317 3.39581 18.6317 4.60871V6.87839H21.7007C21.7724 6.87839 21.856 6.87839 21.9157 6.8904C22.6083 6.92642 23.1218 7.28669 23.1218 7.91115C23.1218 8.40351 22.7755 8.82382 22.1307 8.90789V8.9319C22.8352 8.97994 23.3726 9.37623 23.3726 9.98868C23.3726 10.6492 22.7755 11.0815 21.9873 11.0815H18.6198V15.5248H21.8082C23.0024 15.5248 23.9816 14.5521 23.9816 13.3392V2.4231H20.8051Z" fill="white"/>
<path d="M21.3903 8.05525C21.3903 7.76703 21.1873 7.57489 20.9485 7.53886C20.9246 7.53886 20.8649 7.52686 20.8291 7.52686H19.6946V8.58364H20.8291C20.8649 8.58364 20.9365 8.58364 20.9485 8.57163C21.1873 8.5356 21.3903 8.34346 21.3903 8.05525Z" fill="white"/>
<path d="M8.79168 2.4231C7.5975 2.4231 6.61827 3.39581 6.61827 4.60871V10.0007C7.2273 10.3009 7.86022 10.4931 8.49313 10.4931C9.24547 10.4931 9.65149 10.0367 9.65149 9.41226V6.86638H11.5144V9.40025C11.5144 10.385 10.9054 11.1896 8.83945 11.1896C7.58555 11.1896 6.60632 10.9134 6.60632 10.9134V15.5128H9.79479C10.989 15.5128 11.9682 14.54 11.9682 13.3271V2.4231H8.79168Z" fill="white"/>
<path d="M14.7984 2.4231C13.6042 2.4231 12.625 3.39581 12.625 4.60871V7.46682C13.1743 6.99848 14.1297 6.69825 15.6702 6.77031C16.4942 6.80633 17.3779 7.0345 17.3779 7.0345V7.95919C16.936 7.73102 16.4106 7.52687 15.7299 7.47883C14.5596 7.39477 13.855 7.97119 13.855 8.97994C13.855 10.0007 14.5596 10.5771 15.7299 10.481C16.4106 10.433 16.936 10.2169 17.3779 10.0007V10.9254C17.3779 10.9254 16.5061 11.1535 15.6702 11.1896C14.1297 11.2616 13.1743 10.9614 12.625 10.4931V15.5368H15.8135C17.0077 15.5368 17.9869 14.5641 17.9869 13.3512V2.4231H14.7984Z" fill="white"/>
</svg>
