<svg width="30" height="18" viewBox="0 0 30 18" fill="none" xmlns="http://www.w3.org/2000/svg">
<path d="M30 0H0V18H30V0Z" fill="#10427A"/>
<path d="M17.3185 4.01929H13.2667V11.5118H17.3185V4.01929Z" fill="#FF5F00"/>
<path d="M13.524 7.76556C13.524 6.24323 14.2186 4.89299 15.2862 4.0193C14.5016 3.38389 13.5111 3 12.4306 3C9.87096 3 7.80005 5.13127 7.80005 7.76556C7.80005 10.3999 9.87096 12.5311 12.4306 12.5311C13.5111 12.5311 14.5016 12.1472 15.2862 11.5118C14.2186 10.6514 13.524 9.28789 13.524 7.76556Z" fill="#EB001B"/>
<path d="M22.7852 7.76556C22.7852 10.3999 20.7143 12.5311 18.1546 12.5311C17.0741 12.5311 16.0837 12.1472 15.2991 11.5118C16.3795 10.6381 17.0613 9.28789 17.0613 7.76556C17.0613 6.24323 16.3667 4.89299 15.2991 4.0193C16.0837 3.38389 17.0741 3 18.1546 3C20.7143 3 22.7852 5.1445 22.7852 7.76556Z" fill="#F79E1B"/>
<path d="M9.98576 15.5736V14.7795C9.98576 14.475 9.78576 14.2765 9.44291 14.2765C9.27148 14.2765 9.08576 14.3295 8.95719 14.5015C8.85719 14.3559 8.71433 14.2765 8.50005 14.2765C8.35719 14.2765 8.21433 14.3162 8.10005 14.4618V14.303H7.80005V15.5736H8.10005V14.8721C8.10005 14.6471 8.22862 14.5412 8.42862 14.5412C8.62862 14.5412 8.72862 14.6603 8.72862 14.8721V15.5736H9.02862V14.8721C9.02862 14.6471 9.17148 14.5412 9.35719 14.5412C9.55719 14.5412 9.65719 14.6603 9.65719 14.8721V15.5736H9.98576ZM14.4286 14.303H13.9429V13.9192H13.6429V14.303H13.3715V14.5545H13.6429V15.1368C13.6429 15.428 13.7715 15.6 14.1143 15.6C14.2429 15.6 14.3858 15.5603 14.4858 15.5074L14.4 15.2692C14.3143 15.3221 14.2143 15.3353 14.1429 15.3353C14 15.3353 13.9429 15.2559 13.9429 15.1236V14.5545H14.4286V14.303ZM16.9715 14.2765C16.8 14.2765 16.6858 14.3559 16.6143 14.4618V14.303H16.3143V15.5736H16.6143V14.8589C16.6143 14.6471 16.7143 14.528 16.9 14.528C16.9572 14.528 17.0286 14.5412 17.0858 14.5545L17.1715 14.2898C17.1143 14.2765 17.0286 14.2765 16.9715 14.2765ZM13.1286 14.4089C12.9858 14.3162 12.7858 14.2765 12.5715 14.2765C12.2286 14.2765 12 14.4353 12 14.6868C12 14.8986 12.1715 15.0177 12.4715 15.0574L12.6143 15.0706C12.7715 15.0971 12.8572 15.1368 12.8572 15.203C12.8572 15.2956 12.7429 15.3618 12.5429 15.3618C12.3429 15.3618 12.1858 15.2956 12.0858 15.2295L11.9429 15.4412C12.1 15.5471 12.3143 15.6 12.5286 15.6C12.9286 15.6 13.1572 15.428 13.1572 15.1898C13.1572 14.9648 12.9715 14.8456 12.6858 14.8059L12.5429 14.7927C12.4143 14.7795 12.3143 14.753 12.3143 14.6736C12.3143 14.5809 12.4143 14.528 12.5715 14.528C12.7429 14.528 12.9143 14.5942 13 14.6339L13.1286 14.4089ZM21.1 14.2765C20.9286 14.2765 20.8143 14.3559 20.7429 14.4618V14.303H20.4429V15.5736H20.7429V14.8589C20.7429 14.6471 20.8429 14.528 21.0286 14.528C21.0858 14.528 21.1572 14.5412 21.2143 14.5545L21.3 14.2898C21.2429 14.2765 21.1572 14.2765 21.1 14.2765ZM17.2715 14.9383C17.2715 15.3221 17.5572 15.6 18 15.6C18.2 15.6 18.3429 15.5603 18.4858 15.4545L18.3429 15.2295C18.2286 15.3089 18.1143 15.3486 17.9858 15.3486C17.7429 15.3486 17.5715 15.1898 17.5715 14.9383C17.5715 14.7 17.7429 14.5412 17.9858 14.528C18.1143 14.528 18.2286 14.5677 18.3429 14.6471L18.4858 14.4221C18.3429 14.3162 18.2 14.2765 18 14.2765C17.5572 14.2765 17.2715 14.5545 17.2715 14.9383ZM20.0429 14.9383V14.303H19.7429V14.4618C19.6429 14.3427 19.5 14.2765 19.3143 14.2765C18.9286 14.2765 18.6286 14.5545 18.6286 14.9383C18.6286 15.3221 18.9286 15.6 19.3143 15.6C19.5143 15.6 19.6572 15.5339 19.7429 15.4148V15.5736H20.0429V14.9383ZM18.9429 14.9383C18.9429 14.7133 19.1 14.528 19.3572 14.528C19.6 14.528 19.7715 14.7 19.7715 14.9383C19.7715 15.1633 19.6 15.3486 19.3572 15.3486C19.1 15.3353 18.9429 15.1633 18.9429 14.9383ZM15.3572 14.2765C14.9572 14.2765 14.6715 14.5412 14.6715 14.9383C14.6715 15.3353 14.9572 15.6 15.3715 15.6C15.5715 15.6 15.7715 15.5471 15.9286 15.428L15.7858 15.2295C15.6715 15.3089 15.5286 15.3618 15.3858 15.3618C15.2 15.3618 15.0143 15.2824 14.9715 15.0574H15.9858V14.9515C16 14.5412 15.7429 14.2765 15.3572 14.2765ZM15.3572 14.5148C15.5429 14.5148 15.6715 14.6206 15.7 14.8192H14.9858C15.0143 14.6471 15.1429 14.5148 15.3572 14.5148ZM22.8 14.9383V13.8H22.5V14.4618C22.4 14.3427 22.2572 14.2765 22.0715 14.2765C21.6858 14.2765 21.3858 14.5545 21.3858 14.9383C21.3858 15.3221 21.6858 15.6 22.0715 15.6C22.2715 15.6 22.4143 15.5339 22.5 15.4148V15.5736H22.8V14.9383ZM21.7 14.9383C21.7 14.7133 21.8572 14.528 22.1143 14.528C22.3572 14.528 22.5286 14.7 22.5286 14.9383C22.5286 15.1633 22.3572 15.3486 22.1143 15.3486C21.8572 15.3353 21.7 15.1633 21.7 14.9383ZM11.6715 14.9383V14.303H11.3715V14.4618C11.2715 14.3427 11.1286 14.2765 10.9429 14.2765C10.5572 14.2765 10.2572 14.5545 10.2572 14.9383C10.2572 15.3221 10.5572 15.6 10.9429 15.6C11.1429 15.6 11.2858 15.5339 11.3715 15.4148V15.5736H11.6715V14.9383ZM10.5572 14.9383C10.5572 14.7133 10.7143 14.528 10.9715 14.528C11.2143 14.528 11.3858 14.7 11.3858 14.9383C11.3858 15.1633 11.2143 15.3486 10.9715 15.3486C10.7143 15.3353 10.5572 15.1633 10.5572 14.9383Z" fill="white"/>
</svg>
