<svg width="30" height="18" viewBox="0 0 30 18" fill="none" xmlns="http://www.w3.org/2000/svg">
<path d="M30 0H0V18H30V0Z" fill="#25459A"/>
<path d="M15.0401 7.91817C15.0288 8.75395 15.8339 9.22038 16.4403 9.49768C17.0634 9.78222 17.2727 9.96466 17.2703 10.2191C17.2656 10.6085 16.7733 10.7804 16.3125 10.7871C15.5086 10.7988 15.0413 10.5834 14.6697 10.4205L14.3802 11.692C14.753 11.8533 15.4432 11.9939 16.1591 12C17.8393 12 18.9387 11.2217 18.9446 10.0149C18.9511 8.48335 16.6871 8.39855 16.7025 7.71397C16.7079 7.50642 16.9189 7.28492 17.3815 7.22857C17.6104 7.20011 18.2424 7.17835 18.9589 7.488L19.2401 6.25776C18.8548 6.12609 18.3596 6 17.743 6C16.1615 6 15.0491 6.78892 15.0401 7.91817ZM21.9424 6.10601C21.6356 6.10601 21.3769 6.27394 21.2616 6.53171L18.8614 11.9096H20.5404L20.8745 11.0431H22.9264L23.1202 11.9096H24.6L23.3087 6.10601L21.9424 6.10601ZM22.1772 7.6738L22.6618 9.85308H21.3347L22.1772 7.6738ZM13.0044 6.10601L11.6809 11.9096L13.2808 11.9096L14.6037 6.10601H13.0044ZM10.6374 6.10601L8.97207 10.0562L8.29843 6.69741C8.21936 6.32248 7.90721 6.10601 7.56059 6.10601H4.8381L4.80005 6.2745C5.35893 6.38832 5.99392 6.57188 6.3786 6.76827C6.61405 6.88823 6.68123 6.99312 6.75853 7.27822L8.03445 11.9096H9.72537L12.3177 6.10601H10.6374Z" fill="white"/>
</svg>
