<svg width="24" height="24" viewBox="0 0 24 24" fill="none" xmlns="http://www.w3.org/2000/svg">
<rect x="0.5" y="0.5" width="22.75" height="23" rx="11.375" fill="#2A68BB" stroke="white"/>
<path d="M16.2802 15.2198L14.5605 13.5L13.5 14.5605L15.2198 16.2802L13.5 18H18V13.5L16.2802 15.2198Z" fill="white"/>
<path d="M10.5 6H6V10.5L7.71975 8.78025L9.42337 10.4824L10.4839 9.42188L8.78025 7.71975L10.5 6Z" fill="white"/>
<path d="M10.5 14.5605L9.4395 13.5L7.71975 15.2198L6 13.5V18H10.5L8.78025 16.2802L10.5 14.5605Z" fill="white"/>
<path d="M18 6H13.5L15.2198 7.71975L13.5161 9.42188L14.5766 10.4824L16.2802 8.78025L18 10.5V6Z" fill="white"/>
</svg>
