<svg width="19" height="16" viewBox="0 0 19 16" fill="none" xmlns="http://www.w3.org/2000/svg">
<path d="M18.8969 0V12.9511H18.1904C18.2493 12.7745 18.2493 12.539 18.2493 12.3624C18.2493 11.5971 18.0727 10.9496 17.7195 10.3609V1.17737H1.17738V11.7149H2.00154L5.82801 5.29819L8.12389 9.06579L9.94882 6.65217L11.7149 8.94805C11.3617 9.18352 11.0673 9.47787 10.8319 9.77221L9.94882 8.59484L8.00615 11.1262L5.82801 7.59407L3.41439 11.5971H10.0666C10.0666 11.656 10.0666 11.656 10.0666 11.7149C10.0077 11.8915 10.0077 12.127 10.0077 12.3036C10.0077 12.4802 10.0077 12.5979 10.0077 12.7745C10.0077 12.8334 10.0077 12.8334 10.0077 12.8923H0V0H18.8969ZM16.8365 4.00307C16.8365 5.12158 15.8946 6.06348 14.7761 6.06348C13.6576 6.06348 12.7157 5.12158 12.7157 4.00307C12.7157 2.88457 13.6576 1.94267 14.7761 1.94267C15.8946 1.94267 16.8365 2.94344 16.8365 4.00307ZM15.6591 4.00307C15.6591 3.53212 15.247 3.12004 14.7761 3.12004C14.3051 3.12004 13.893 3.53212 13.893 4.00307C13.893 4.47402 14.3051 4.88611 14.7761 4.88611C15.247 4.88611 15.6591 4.53289 15.6591 4.00307Z" fill="#3192BF"/>
<path d="M14.9528 11.8326H16.1302V13.0099H14.9528V14.1873H13.7755V13.0099H12.5981V11.8326H13.7755V10.6552H14.9528V11.8326ZM17.7785 12.4213C17.7785 14.3639 16.248 15.8945 14.3053 15.8945C12.3626 15.8945 10.832 14.3639 10.832 12.4213C10.832 10.4786 12.3626 8.948 14.3053 8.948C16.248 8.948 17.7785 10.5375 17.7785 12.4213ZM16.6012 12.4213C16.6012 11.185 15.6004 10.1254 14.3053 10.1254C13.0102 10.1254 12.0094 11.1261 12.0094 12.4213C12.0094 13.7164 13.0102 14.7171 14.3053 14.7171C15.6004 14.7171 16.6012 13.7752 16.6012 12.4213Z" fill="#3192BF"/>
</svg>
