<svg width="24" height="24" viewBox="0 0 24 24" fill="none" xmlns="http://www.w3.org/2000/svg">
<rect x="0.5" y="0.5" width="22.75" height="23" rx="11.375" fill="#2A68BB" stroke="white"/>
<g clip-path="url(#clip0_189_2841)">
<path d="M19.2945 6.15781V15.9547H18.7602C18.8047 15.8211 18.8047 15.643 18.8047 15.5094C18.8047 14.9305 18.6711 14.4406 18.4039 13.9953V7.04843H5.89062V15.0195H6.51406L9.40859 10.1656L11.1453 13.0156L12.5258 11.1898L13.8617 12.9266C13.5945 13.1047 13.3719 13.3273 13.1937 13.55L12.5258 12.6594L11.0563 14.5742L9.40859 11.9023L7.58281 14.9305H12.6148C12.6148 14.975 12.6148 14.975 12.6148 15.0195C12.5703 15.1531 12.5703 15.3312 12.5703 15.4648C12.5703 15.5984 12.5703 15.6875 12.5703 15.8211C12.5703 15.8656 12.5703 15.8656 12.5703 15.9101H5V6.15781H19.2945ZM17.7359 9.18593C17.7359 10.032 17.0234 10.7445 16.1773 10.7445C15.3313 10.7445 14.6188 10.032 14.6188 9.18593C14.6188 8.33984 15.3313 7.62734 16.1773 7.62734C17.0234 7.62734 17.7359 8.38437 17.7359 9.18593ZM16.8453 9.18593C16.8453 8.82968 16.5336 8.51796 16.1773 8.51796C15.8211 8.51796 15.5094 8.82968 15.5094 9.18593C15.5094 9.54218 15.8211 9.8539 16.1773 9.8539C16.5336 9.8539 16.8453 9.58671 16.8453 9.18593Z" fill="white"/>
<path d="M16.1328 15.0195H17.0234V15.9102H16.1328V16.8008H15.2422V15.9102H14.3516V15.0195H15.2422V14.1289H16.1328V15.0195ZM18.2703 15.4648C18.2703 16.9344 17.1125 18.0922 15.643 18.0922C14.1734 18.0922 13.0156 16.9344 13.0156 15.4648C13.0156 13.9953 14.1734 12.8375 15.643 12.8375C17.1125 12.8375 18.2703 14.0398 18.2703 15.4648ZM17.3797 15.4648C17.3797 14.5297 16.6227 13.7281 15.643 13.7281C14.6633 13.7281 13.9062 14.4851 13.9062 15.4648C13.9062 16.4445 14.6633 17.2016 15.643 17.2016C16.6227 17.2016 17.3797 16.4891 17.3797 15.4648Z" fill="white"/>
</g>
<defs>
<clipPath id="clip0_189_2841">
<rect width="14.25" height="14.25" fill="white" transform="translate(5 5)"/>
</clipPath>
</defs>
</svg>
