<svg width="24" height="24" viewBox="0 0 24 24" fill="none" xmlns="http://www.w3.org/2000/svg">
<rect x="0.5" y="0.5" width="22.75" height="23" rx="11.375" fill="#2A68BB" stroke="white"/>
<path d="M17.0965 18.6667H7.13467C5.95776 18.6667 5 17.6011 5 16.2917V9.95835C5 8.64893 5.95776 7.58335 7.13467 7.58335H8.2632L8.97476 6.79168C9.38675 6.33331 10.1104 6.00002 10.6925 6.00002H13.5387C14.1207 6.00002 14.8444 6.33331 15.2564 6.79168L15.9679 7.58335H17.0965C18.2734 7.58335 19.2311 8.64893 19.2311 9.95835V16.2917C19.2311 17.6011 18.2734 18.6667 17.0965 18.6667ZM7.13467 9.16668C6.74189 9.16668 6.42312 9.52135 6.42312 9.95835V16.2917C6.42312 16.7287 6.74189 17.0833 7.13467 17.0833H17.0965C17.4893 17.0833 17.808 16.7287 17.808 16.2917V9.95835C17.808 9.52135 17.4893 9.16668 17.0965 9.16668H15.6734C15.4841 9.16668 15.3034 9.08356 15.1703 8.93472L14.2502 7.9111C14.1072 7.75197 13.7415 7.58335 13.5387 7.58335H10.6925C10.4897 7.58335 10.1239 7.75197 9.9809 7.9111L9.06086 8.93472C8.9278 9.08356 8.74706 9.16668 8.55779 9.16668H7.13467Z" fill="white"/>
<path d="M12.1164 10.75C13.0977 10.75 13.8953 11.6375 13.8953 12.7292C13.8953 13.8209 13.0977 14.7084 12.1164 14.7084C11.1352 14.7084 10.3375 13.8209 10.3375 12.7292C10.3375 11.6375 11.1352 10.75 12.1164 10.75ZM12.1164 9.95836C10.7403 9.95836 9.62598 11.1981 9.62598 12.7292C9.62598 14.2587 10.7403 15.5 12.1164 15.5C13.4926 15.5 14.6069 14.2587 14.6069 12.7292C14.6069 11.1981 13.4926 9.95836 12.1164 9.95836Z" fill="white"/>
<path d="M16.385 9.72025C15.8734 9.72025 15.46 10.181 15.46 10.7502C15.46 11.3194 15.8734 11.7786 16.385 11.7786C16.8966 11.7786 17.31 11.3194 17.31 10.7502C17.31 10.181 16.8966 9.72025 16.385 9.72025Z" fill="white"/>
</svg>
