<svg width="19" height="16" viewBox="0 0 19 16" fill="none" xmlns="http://www.w3.org/2000/svg">
<path d="M15.8616 15.67H3.53779C2.08182 15.67 0.896973 14.3518 0.896973 12.7319V4.89687C0.896973 3.27699 2.08182 1.95875 3.53779 1.95875H4.9339L5.81417 0.979375C6.32385 0.412317 7.21908 0 7.93915 0H11.4602C12.1803 0 13.0755 0.412317 13.5852 0.979375L14.4655 1.95875H15.8616C17.3176 1.95875 18.5024 3.27699 18.5024 4.89687V12.7319C18.5024 14.3518 17.3176 15.67 15.8616 15.67ZM3.53779 3.9175C3.05188 3.9175 2.65752 4.35626 2.65752 4.89687V12.7319C2.65752 13.2725 3.05188 13.7113 3.53779 13.7113H15.8616C16.3475 13.7113 16.7419 13.2725 16.7419 12.7319V4.89687C16.7419 4.35626 16.3475 3.9175 15.8616 3.9175H14.101C13.8669 3.9175 13.6433 3.81467 13.4787 3.63054L12.3405 2.36421C12.1636 2.16736 11.7111 1.95875 11.4602 1.95875H7.93915C7.68827 1.95875 7.23581 2.16736 7.05887 2.36421L5.92068 3.63054C5.75607 3.81467 5.53248 3.9175 5.29833 3.9175H3.53779Z" fill="#3192BF"/>
<path d="M9.70058 5.8761C10.9145 5.8761 11.9013 6.97398 11.9013 8.32454C11.9013 9.6751 10.9145 10.773 9.70058 10.773C8.48668 10.773 7.4999 9.6751 7.4999 8.32454C7.4999 6.97398 8.48668 5.8761 9.70058 5.8761ZM9.70058 4.89673C7.99813 4.89673 6.61963 6.43043 6.61963 8.32454C6.61963 10.2167 7.99813 11.7524 9.70058 11.7524C11.403 11.7524 12.7815 10.2167 12.7815 8.32454C12.7815 6.43043 11.403 4.89673 9.70058 4.89673Z" fill="#3192BF"/>
<path d="M14.9813 4.60229C14.3484 4.60229 13.8369 5.17229 13.8369 5.87646C13.8369 6.58063 14.3484 7.14867 14.9813 7.14867C15.6142 7.14867 16.1256 6.58063 16.1256 5.87646C16.1256 5.17229 15.6142 4.60229 14.9813 4.60229Z" fill="#3192BF"/>
</svg>
